<svg id="visual" viewBox="0 0 900 600" width="900" height="600" xmlns="http://www.w3.org/2000/svg" xmlns:xlink="http://www.w3.org/1999/xlink" version="1.1"><rect x="0" y="0" width="900" height="600" fill="#001220"></rect><path d="M0 404L21.5 406.2C43 408.3 86 412.7 128.8 419.3C171.7 426 214.3 435 257.2 433.2C300 431.3 343 418.7 385.8 412C428.7 405.3 471.3 404.7 514.2 396.2C557 387.7 600 371.3 642.8 364.5C685.7 357.7 728.3 360.3 771.2 374.8C814 389.3 857 415.7 878.5 428.8L900 442L900 601L878.5 601C857 601 814 601 771.2 601C728.3 601 685.7 601 642.8 601C600 601 557 601 514.2 601C471.3 601 428.7 601 385.8 601C343 601 300 601 257.2 601C214.3 601 171.7 601 128.8 601C86 601 43 601 21.5 601L0 601Z" fill="#001122"></path><path d="M0 464L21.5 454C43 444 86 424 128.8 420.8C171.7 417.7 214.3 431.3 257.2 434.7C300 438 343 431 385.8 424.3C428.7 417.7 471.3 411.3 514.2 411.7C557 412 600 419 642.8 422.8C685.7 426.7 728.3 427.3 771.2 426.8C814 426.3 857 424.7 878.5 423.8L900 423L900 601L878.5 601C857 601 814 601 771.2 601C728.3 601 685.7 601 642.8 601C600 601 557 601 514.2 601C471.3 601 428.7 601 385.8 601C343 601 300 601 257.2 601C214.3 601 171.7 601 128.8 601C86 601 43 601 21.5 601L0 601Z" fill="#001122"></path><path d="M0 462L21.5 459.7C43 457.3 86 452.7 128.8 457C171.7 461.3 214.3 474.7 257.2 481.7C300 488.7 343 489.3 385.8 483C428.7 476.7 471.3 463.3 514.2 459C557 454.7 600 459.3 642.8 461.3C685.7 463.3 728.3 462.7 771.2 467.8C814 473 857 484 878.5 489.5L900 495L900 601L878.5 601C857 601 814 601 771.2 601C728.3 601 685.7 601 642.8 601C600 601 557 601 514.2 601C471.3 601 428.7 601 385.8 601C343 601 300 601 257.2 601C214.3 601 171.7 601 128.8 601C86 601 43 601 21.5 601L0 601Z" fill="#001122"></path><path d="M0 495L21.5 495.7C43 496.3 86 497.7 128.8 500.7C171.7 503.7 214.3 508.3 257.2 506.8C300 505.3 343 497.7 385.8 499.5C428.7 501.3 471.3 512.7 514.2 511.2C557 509.7 600 495.3 642.8 490.3C685.7 485.3 728.3 489.7 771.2 494.7C814 499.7 857 505.3 878.5 508.2L900 511L900 601L878.5 601C857 601 814 601 771.2 601C728.3 601 685.7 601 642.8 601C600 601 557 601 514.2 601C471.3 601 428.7 601 385.8 601C343 601 300 601 257.2 601C214.3 601 171.7 601 128.8 601C86 601 43 601 21.5 601L0 601Z" fill="#001122"></path><path d="M0 532L21.5 538.5C43 545 86 558 128.8 562.7C171.7 567.3 214.3 563.7 257.2 563.3C300 563 343 566 385.8 568.2C428.7 570.3 471.3 571.7 514.2 568.3C557 565 600 557 642.8 552.8C685.7 548.7 728.3 548.3 771.2 550.8C814 553.3 857 558.7 878.5 561.3L900 564L900 601L878.5 601C857 601 814 601 771.2 601C728.3 601 685.7 601 642.8 601C600 601 557 601 514.2 601C471.3 601 428.7 601 385.8 601C343 601 300 601 257.2 601C214.3 601 171.7 601 128.8 601C86 601 43 601 21.5 601L0 601Z" fill="#001122"></path></svg>